<?xml version="1.0" encoding="utf-8"?>
<!-- Generator: Adobe Illustrator 27.1.1, SVG Export Plug-In . SVG Version: 6.00 Build 0)  -->
<svg version="1.1" id="Layer_1" xmlns="http://www.w3.org/2000/svg" xmlns:xlink="http://www.w3.org/1999/xlink" x="0px" y="0px"
	 viewBox="0 0 800 800" style="enable-background:new 0 0 800 800;" xml:space="preserve">
<style type="text/css">
	.st0{opacity:0.96;fill:#FFA335;enable-background:new    ;}
	.st1{fill:#292D32;}
</style>
<path class="st0" d="M400,733.3c184.1,0,333.3-149.2,333.3-333.3c0-184.1-149.2-333.3-333.3-333.3C215.9,66.7,66.7,215.9,66.7,400
	C66.7,584.1,215.9,733.3,400,733.3z"/>
<path class="st1" d="M435.3,400l76.7-76.7c9.7-9.7,9.7-25.7,0-35.3s-25.7-9.7-35.3,0L400,364.7L323.3,288c-9.7-9.7-25.7-9.7-35.3,0
	c-9.7,9.7-9.7,25.7,0,35.3l76.7,76.7L288,476.7c-9.7,9.7-9.7,25.7,0,35.3c5,5,11.3,7.3,17.7,7.3c6.3,0,12.7-2.3,17.7-7.3l76.7-76.7
	l76.7,76.7c5,5,11.3,7.3,17.7,7.3c6.3,0,12.7-2.3,17.7-7.3c9.7-9.7,9.7-25.7,0-35.3L435.3,400z"/>
<image style="overflow:visible;" width="348" height="722" xlink:href="../../../../../../../../Users/aldoivanlm/Desktop/Screen Shot 2023-05-09 at 12.45.09.png"  transform="matrix(1 0 0 1 -419 -218)">
</image>
</svg>
